<?xml version="1.0" encoding="UTF-8" standalone="no"?>
<!-- Created with Inkscape (http://www.inkscape.org/) -->

<svg
   width="520.89697"
   height="148"
   viewBox="0 0 137.82065 39.158333"
   version="1.1"
   id="svg80"
   sodipodi:docname="no-linkedin.svg"
   inkscape:version="1.4.2 (ebf0e940d0, 2025-05-08)"
   xmlns:inkscape="http://www.inkscape.org/namespaces/inkscape"
   xmlns:sodipodi="http://sodipodi.sourceforge.net/DTD/sodipodi-0.dtd"
   xmlns:xlink="http://www.w3.org/1999/xlink"
   xmlns="http://www.w3.org/2000/svg"
   xmlns:svg="http://www.w3.org/2000/svg"
   xmlns:rdf="http://www.w3.org/1999/02/22-rdf-syntax-ns#"
   xmlns:cc="http://creativecommons.org/ns#"
   xmlns:dc="http://purl.org/dc/elements/1.1/">
  <defs
     id="defs74">
    <rect
       x="207.71262"
       y="76.721086"
       width="198.34345"
       height="62.225397"
       id="rect1" />
    <clipPath
       id="SVGID_2_">
      <use
         xlink:href="#SVGID_1_"
         style="overflow:visible"
         id="use1007"
         x="0"
         y="0"
         width="100%"
         height="100%" />
    </clipPath>
    <clipPath
       id="SVGID_2_-3">
      <use
         xlink:href="#SVGID_1_"
         style="overflow:visible"
         id="use1007-6"
         x="0"
         y="0"
         width="100%"
         height="100%" />
    </clipPath>
    <clipPath
       id="SVGID_2_-5">
      <use
         xlink:href="#SVGID_1_"
         style="overflow:visible"
         id="use1007-3"
         x="0"
         y="0"
         width="100%"
         height="100%" />
    </clipPath>
    <clipPath
       id="SVGID_2_-6">
      <use
         xlink:href="#SVGID_1_"
         style="overflow:visible"
         id="use1007-2"
         x="0"
         y="0"
         width="100%"
         height="100%" />
    </clipPath>
    <clipPath
       id="SVGID_2_-1">
      <use
         xlink:href="#SVGID_1_"
         style="overflow:visible"
         id="use1007-27"
         x="0"
         y="0"
         width="100%"
         height="100%" />
    </clipPath>
    <clipPath
       id="SVGID_2_-9">
      <use
         xlink:href="#SVGID_1_"
         style="overflow:visible"
         id="use1007-36"
         x="0"
         y="0"
         width="100%"
         height="100%" />
    </clipPath>
    <clipPath
       id="SVGID_2_-2">
      <use
         xlink:href="#SVGID_1_"
         style="overflow:visible"
         id="use1007-61"
         x="0"
         y="0"
         width="100%"
         height="100%" />
    </clipPath>
    <clipPath
       id="SVGID_2_-7">
      <use
         xlink:href="#SVGID_1_"
         style="overflow:visible"
         id="use1007-9"
         x="0"
         y="0"
         width="100%"
         height="100%" />
    </clipPath>
    <clipPath
       id="SVGID_2_-0">
      <use
         xlink:href="#SVGID_1_"
         style="overflow:visible"
         id="use1007-23"
         x="0"
         y="0"
         width="100%"
         height="100%" />
    </clipPath>
    <clipPath
       id="SVGID_2_-92">
      <use
         xlink:href="#SVGID_1_"
         style="overflow:visible"
         id="use1007-28"
         x="0"
         y="0"
         width="100%"
         height="100%" />
    </clipPath>
    <clipPath
       id="SVGID_2_-36">
      <use
         xlink:href="#SVGID_1_"
         style="overflow:visible"
         id="use1007-1"
         x="0"
         y="0"
         width="100%"
         height="100%" />
    </clipPath>
    <clipPath
       id="SVGID_2_-31">
      <use
         xlink:href="#SVGID_1_"
         style="overflow:visible"
         id="use1007-94"
         x="0"
         y="0"
         width="100%"
         height="100%" />
    </clipPath>
    <clipPath
       id="SVGID_2_-4">
      <use
         xlink:href="#SVGID_1_"
         style="overflow:visible"
         id="use1007-5"
         x="0"
         y="0"
         width="100%"
         height="100%" />
    </clipPath>
    <clipPath
       id="SVGID_2_-61">
      <use
         xlink:href="#SVGID_1_"
         style="overflow:visible"
         id="use1007-0"
         x="0"
         y="0"
         width="100%"
         height="100%" />
    </clipPath>
    <clipPath
       id="SVGID_2_-32">
      <use
         xlink:href="#SVGID_1_"
         style="overflow:visible"
         id="use1007-06"
         x="0"
         y="0"
         width="100%"
         height="100%" />
    </clipPath>
    <rect
       x="0"
       height="12.9"
       width="66.900002"
       y="0"
       id="SVGID_1_" />
    <clipPath
       id="clipPath4674"
       clipPathUnits="userSpaceOnUse">
      <path
         id="path4676"
         d="M 0,500 H 1024 V 0 H 0 Z"
         inkscape:connector-curvature="0" />
    </clipPath>
  </defs>
  <sodipodi:namedview
     id="base"
     pagecolor="#ffffff"
     bordercolor="#666666"
     borderopacity="1.0"
     inkscape:pageopacity="0.0"
     inkscape:pageshadow="2"
     inkscape:zoom="2"
     inkscape:cx="262.75"
     inkscape:cy="57.75"
     inkscape:document-units="mm"
     inkscape:current-layer="layer1"
     showgrid="false"
     inkscape:window-width="1918"
     inkscape:window-height="1052"
     inkscape:window-x="0"
     inkscape:window-y="0"
     inkscape:window-maximized="0"
     fit-margin-top="0"
     fit-margin-left="0"
     fit-margin-right="0"
     fit-margin-bottom="0"
     units="px"
     showguides="true"
     inkscape:showpageshadow="2"
     inkscape:pagecheckerboard="0"
     inkscape:deskcolor="#d1d1d1" />
  <metadata
     id="metadata77">
    <rdf:RDF>
      <cc:Work
         rdf:about="">
        <dc:format>image/svg+xml</dc:format>
        <dc:type
           rdf:resource="http://purl.org/dc/dcmitype/StillImage" />
        <dc:title />
      </cc:Work>
    </rdf:RDF>
  </metadata>
  <g
     inkscape:label="Layer 1"
     inkscape:groupmode="layer"
     id="layer1"
     transform="translate(13.842136,5.2194147)">
    <rect
       style="opacity:1;fill:#eeeeec;fill-opacity:1;stroke:none;stroke-width:0.92779803;stroke-linecap:round;stroke-linejoin:miter;stroke-miterlimit:4;stroke-dasharray:none;stroke-dashoffset:0;stroke-opacity:1;paint-order:markers stroke fill"
       id="rect2850"
       width="137.82066"
       height="39.158333"
       x="-13.842136"
       y="-5.2194147" />
    <text
       xml:space="preserve"
       id="text1"
       style="font-size:29.3333px;font-family:'URW Gothic';-inkscape-font-specification:'URW Gothic';text-align:start;writing-mode:lr-tb;direction:ltr;white-space:pre;shape-inside:url(#rect1);display:inline;fill:#007ebb;fill-opacity:1;stroke:none;stroke-width:0.10047974;stroke-opacity:0.790862;paint-order:fill markers stroke;stroke-dasharray:none"
       transform="matrix(0.3336481,0,0,0.47497886,-28.02632,-20.55352)"
       inkscape:label="linkedin"><tspan
         x="207.71289"
         y="103.87295"
         id="tspan3"><tspan
           style="font-weight:bold;font-family:'Adwaita Sans';-inkscape-font-specification:'Adwaita Sans Bold'"
           id="tspan2">LinkedIn</tspan></tspan></text>
    <g
       aria-label="You won’t find me on Facebook"
       style="font-style:normal;font-variant:normal;font-weight:bold;font-stretch:condensed;font-size:13.09656143px;line-height:1.10099995;font-family:'Open Sans Condensed';-inkscape-font-specification:'Open Sans Condensed, Bold Condensed';font-variant-ligatures:normal;font-variant-caps:normal;font-variant-numeric:normal;font-feature-settings:normal;text-align:start;letter-spacing:0px;word-spacing:0px;writing-mode:lr-tb;text-anchor:start;fill:#007ebb;fill-opacity:1;stroke:none;stroke-width:0.76034528"
       id="text2956">
      <path
         d="m 27.816941,8.5861798 1.246987,-3.6898027 h 1.822519 L 28.66745,10.498227 v 3.747356 H 26.953642 V 10.568569 L 24.741039,4.8963771 h 1.835309 z"
         style="font-style:normal;font-variant:normal;font-weight:bold;font-stretch:condensed;font-size:13.09656143px;line-height:1.10099995;font-family:'Open Sans Condensed';-inkscape-font-specification:'Open Sans Condensed, Bold Condensed';fill:#007ebb;fill-opacity:1;stroke-width:0.76034528"
         id="path870" />
      <path
         d="m 36.520271,10.670886 q 0,1.752177 -0.741797,2.730582 -0.741798,0.972011 -2.033549,0.972011 -0.818535,0 -1.445226,-0.447637 -0.62669,-0.447636 -0.965615,-1.285356 -0.338925,-0.844114 -0.338925,-1.9696 0,-1.7329919 0.735403,-2.7050023 0.735402,-0.9784052 2.039943,-0.9784052 1.259776,0 2.001574,0.9975896 0.748192,0.9911948 0.748192,2.6858179 z m -3.785725,0 q 0,1.112697 0.243003,1.681834 0.243002,0.569138 0.780166,0.569138 1.023169,0 1.023169,-2.250972 0,-1.1190906 -0.249397,-1.6690438 -0.243003,-0.5563481 -0.773772,-0.5563481 -0.537164,0 -0.780166,0.5563481 -0.243003,0.5499532 -0.243003,1.6690438 z"
         style="font-style:normal;font-variant:normal;font-weight:bold;font-stretch:condensed;font-size:13.09656143px;line-height:1.10099995;font-family:'Open Sans Condensed';-inkscape-font-specification:'Open Sans Condensed, Bold Condensed';fill:#007ebb;fill-opacity:1;stroke-width:0.76034528"
         id="path872" />
      <path
         d="m 41.565772,14.245583 -0.211028,-0.914458 h -0.08953 q -0.236607,0.486006 -0.677849,0.767377 -0.434847,0.274977 -0.99759,0.274977 -0.95922,0 -1.45162,-0.65227 -0.4924,-0.652271 -0.4924,-1.950416 V 7.1217694 h 1.720202 v 4.2397556 q 0,0.780167 0.18545,1.176645 0.185449,0.396477 0.601111,0.396477 0.549954,0 0.799351,-0.549953 0.255792,-0.549953 0.255792,-1.848099 V 7.1217694 h 1.720203 v 7.1238136 z"
         style="font-style:normal;font-variant:normal;font-weight:bold;font-stretch:condensed;font-size:13.09656143px;line-height:1.10099995;font-family:'Open Sans Condensed';-inkscape-font-specification:'Open Sans Condensed, Bold Condensed';fill:#007ebb;fill-opacity:1;stroke-width:0.76034528"
         id="path874" />
      <path
         d="m 52.577627,14.245583 -0.709824,-4.13744 -0.249397,-1.7457814 h -0.02558 q -0.09592,0.8505091 -0.153475,1.2341975 -0.05755,0.3772935 -0.812141,4.6490239 H 48.440188 L 47.020541,7.1217694 h 1.707413 l 0.65227,3.9264106 q 0.115107,0.65227 0.211029,1.912047 h 0.03837 q 0.01279,-0.338925 0.08953,-1.029564 0.07674,-0.697034 0.108712,-0.895273 l 0.703428,-3.9136206 h 2.187024 l 0.697033,3.9264106 q 0.121502,0.626691 0.211029,1.912047 h 0.02558 q 0.08953,-1.14467 0.223818,-1.912047 l 0.67785,-3.9264106 h 1.662649 L 54.79023,14.245583 Z"
         style="font-style:normal;font-variant:normal;font-weight:bold;font-stretch:condensed;font-size:13.09656143px;line-height:1.10099995;font-family:'Open Sans Condensed';-inkscape-font-specification:'Open Sans Condensed, Bold Condensed';fill:#007ebb;fill-opacity:1;stroke-width:0.76034528"
         id="path876" />
      <path
         d="m 62.355284,10.670886 q 0,1.752177 -0.741797,2.730582 -0.741798,0.972011 -2.033549,0.972011 -0.818535,0 -1.445226,-0.447637 -0.626691,-0.447636 -0.965615,-1.285356 -0.338925,-0.844114 -0.338925,-1.9696 0,-1.7329919 0.735403,-2.7050023 0.735402,-0.9784052 2.039943,-0.9784052 1.259776,0 2.001574,0.9975896 0.748192,0.9911948 0.748192,2.6858179 z m -3.785725,0 q 0,1.112697 0.243003,1.681834 0.243002,0.569138 0.780166,0.569138 1.023169,0 1.023169,-2.250972 0,-1.1190906 -0.249398,-1.6690438 -0.243002,-0.5563481 -0.773771,-0.5563481 -0.537164,0 -0.780166,0.5563481 -0.243003,0.5499532 -0.243003,1.6690438 z"
         style="font-style:normal;font-variant:normal;font-weight:bold;font-stretch:condensed;font-size:13.09656143px;line-height:1.10099995;font-family:'Open Sans Condensed';-inkscape-font-specification:'Open Sans Condensed, Bold Condensed';fill:#007ebb;fill-opacity:1;stroke-width:0.76034528"
         id="path878" />
      <path
         d="M 67.100229,14.245583 V 9.9994318 q 0,-0.7737714 -0.18545,-1.1702494 -0.185449,-0.3964779 -0.601111,-0.3964779 -0.549953,0 -0.805746,0.5499532 -0.255792,0.5435585 -0.255792,1.8417043 v 3.421221 H 63.551112 V 7.1217694 h 1.349304 l 0.204634,0.9144572 h 0.108711 q 0.230213,-0.4924001 0.658665,-0.7673767 0.428452,-0.2813714 1.003985,-0.2813714 0.97201,0 1.45162,0.6650597 0.486006,0.6650598 0.486006,1.9440209 v 4.6490239 z"
         style="font-style:normal;font-variant:normal;font-weight:bold;font-stretch:condensed;font-size:13.09656143px;line-height:1.10099995;font-family:'Open Sans Condensed';-inkscape-font-specification:'Open Sans Condensed, Bold Condensed';fill:#007ebb;fill-opacity:1;stroke-width:0.76034528"
         id="path880" />
      <path
         d="m 71.941096,4.8963771 0.08953,0.1406857 q -0.31974,1.2597767 -1.125486,3.0631118 h -1.298145 q 0.409267,-1.6370702 0.645875,-3.2037975 z"
         style="font-style:normal;font-variant:normal;font-weight:bold;font-stretch:condensed;font-size:13.09656143px;line-height:1.10099995;font-family:'Open Sans Condensed';-inkscape-font-specification:'Open Sans Condensed, Bold Condensed';fill:#007ebb;fill-opacity:1;stroke-width:0.76034528"
         id="path882" />
      <path
         d="m 75.36232,12.934647 q 0.358109,0 0.773771,-0.179054 v 1.330119 q -0.415662,0.287767 -1.246987,0.287767 -0.927247,0 -1.374883,-0.549954 -0.447636,-0.556348 -0.447636,-1.662649 V 8.4710733 H 72.375946 V 7.7100915 L 73.264824,7.0961902 73.69967,5.5870161 h 1.087117 v 1.5347533 h 1.291751 v 1.3493039 h -1.291751 v 3.7473557 q 0,0.716218 0.575533,0.716218 z"
         style="font-style:normal;font-variant:normal;font-weight:bold;font-stretch:condensed;font-size:13.09656143px;line-height:1.10099995;font-family:'Open Sans Condensed';-inkscape-font-specification:'Open Sans Condensed, Bold Condensed';fill:#007ebb;fill-opacity:1;stroke-width:0.76034528"
         id="path884" />
      <path
         d="M 83.547668,8.4710733 H 82.371023 V 14.245583 H 80.670005 V 8.4710733 h -0.82493 V 7.6205642 l 0.82493,-0.5115844 V 6.5718161 q 0,-1.1894338 0.4924,-1.7649663 0.4924,-0.5819273 1.585912,-0.5819273 0.690639,0 1.285356,0.2877663 l -0.447636,1.2981455 q -0.319741,-0.1534754 -0.652271,-0.1534754 -0.294161,0 -0.428452,0.230213 -0.134291,0.230213 -0.134291,0.7098234 v 0.5243741 h 1.176645 z m 2.462,5.7745097 H 84.30865 V 7.1217694 h 1.701018 z M 84.238307,5.260881 q 0,-0.4220571 0.243002,-0.6650597 0.249398,-0.2493975 0.690639,-0.2493975 0.415663,0 0.66506,0.2493975 0.249397,0.2430026 0.249397,0.6650597 0,0.4348468 -0.255792,0.6778494 -0.255792,0.2366078 -0.658665,0.2366078 -0.422057,0 -0.677849,-0.2366078 Q 84.238307,5.6957278 84.238307,5.260881 Z"
         style="font-style:normal;font-variant:normal;font-weight:bold;font-stretch:condensed;font-size:13.09656143px;line-height:1.10099995;font-family:'Open Sans Condensed';-inkscape-font-specification:'Open Sans Condensed, Bold Condensed';fill:#007ebb;fill-opacity:1;stroke-width:0.76034528"
         id="path886" />
      <path
         d="M 91.016801,14.245583 V 9.9994318 q 0,-0.7737714 -0.185449,-1.1702494 -0.185449,-0.3964779 -0.601112,-0.3964779 -0.549953,0 -0.805745,0.5499532 -0.255792,0.5435585 -0.255792,1.8417043 v 3.421221 H 87.467684 V 7.1217694 h 1.349304 l 0.204634,0.9144572 h 0.108712 q 0.230213,-0.4924001 0.658665,-0.7673767 0.428452,-0.2813714 1.003984,-0.2813714 0.972011,0 1.451621,0.6650597 0.486005,0.6650598 0.486005,1.9440209 v 4.6490239 z"
         style="font-style:normal;font-variant:normal;font-weight:bold;font-stretch:condensed;font-size:13.09656143px;line-height:1.10099995;font-family:'Open Sans Condensed';-inkscape-font-specification:'Open Sans Condensed, Bold Condensed';fill:#007ebb;fill-opacity:1;stroke-width:0.76034528"
         id="path888" />
      <path
         d="m 95.991963,14.373479 q -0.9848,0 -1.553938,-0.972011 -0.569138,-0.97201 -0.569138,-2.705002 0,-1.7393875 0.556349,-2.7241875 0.556348,-0.9848 1.534753,-0.9848 0.486005,0 0.837719,0.2430026 0.358109,0.2366078 0.658665,0.8057455 H 97.55869 Q 97.481952,7.0642161 97.481952,6.674133 V 4.2952654 h 1.701019 v 9.9503176 h -1.266172 l -0.287766,-0.927247 h -0.05755 q -0.543559,1.055143 -1.579517,1.055143 z m 0.549953,-1.438832 q 0.473216,0 0.690639,-0.428451 0.217423,-0.434847 0.236608,-1.573123 v -0.223818 q 0,-1.240592 -0.223818,-1.7457817 -0.217424,-0.5051896 -0.722613,-0.5051896 -0.473216,0 -0.690639,0.5819273 -0.211029,0.5755325 -0.211029,1.681834 0,1.106301 0.217424,1.662649 0.217423,0.549953 0.703428,0.549953 z"
         style="font-style:normal;font-variant:normal;font-weight:bold;font-stretch:condensed;font-size:13.09656143px;line-height:1.10099995;font-family:'Open Sans Condensed';-inkscape-font-specification:'Open Sans Condensed, Bold Condensed';fill:#007ebb;fill-opacity:1;stroke-width:0.76034528"
         id="path890" />
      <path
         d="M 110.93662,14.245583 V 9.9994318 q 0,-1.5667273 -0.77377,-1.5667273 -0.56274,0 -0.80575,0.5627429 -0.243,0.556348 -0.243,1.7905456 v 3.45959 h -1.71381 V 9.9994318 q 0,-1.5667273 -0.78656,-1.5667273 -0.54995,0 -0.79935,0.5563481 -0.2494,0.556348 -0.2494,1.8353094 v 3.421221 h -1.70101 V 7.1217694 h 1.3493 l 0.20463,0.9144572 h 0.10872 q 0.25579,-0.5435585 0.69703,-0.7929559 0.44764,-0.2557922 0.95283,-0.2557922 1.30454,0 1.73938,1.2341974 h 0.064 q 0.54356,-1.2341974 1.74578,-1.2341974 0.94643,0 1.43244,0.6650597 0.4924,0.6650598 0.4924,1.9440209 v 4.6490239 z"
         style="font-style:normal;font-variant:normal;font-weight:bold;font-stretch:condensed;font-size:13.09656143px;line-height:1.10099995;font-family:'Open Sans Condensed';-inkscape-font-specification:'Open Sans Condensed, Bold Condensed';fill:#007ebb;fill-opacity:1;stroke-width:0.76034528"
         id="path892" />
      <path
         d="m 116.64718,14.373479 q -1.33651,0 -2.11028,-0.946432 -0.76738,-0.952826 -0.76738,-2.692213 0,-1.7649659 0.69704,-2.7561607 0.69703,-0.9911948 1.94402,-0.9911948 1.16385,0 1.83531,0.8505091 0.67145,0.8441143 0.67145,2.3724724 v 0.908063 h -3.42122 q 0.0192,0.952826 0.39008,1.419647 0.3709,0.460426 1.02317,0.460426 0.83133,0 1.70102,-0.51798 v 1.400463 q -0.81854,0.4924 -1.96321,0.4924 z m -0.24939,-6.0750654 q -0.36451,0 -0.60111,0.3900831 -0.23661,0.3836883 -0.27498,1.1958286 h 1.7266 q -0.0128,-0.7801663 -0.23661,-1.183039 -0.22382,-0.4028727 -0.6139,-0.4028727 z"
         style="font-style:normal;font-variant:normal;font-weight:bold;font-stretch:condensed;font-size:13.09656143px;line-height:1.10099995;font-family:'Open Sans Condensed';-inkscape-font-specification:'Open Sans Condensed, Bold Condensed';fill:#007ebb;fill-opacity:1;stroke-width:0.76034528"
         id="path894" />
      <path
         d="m 30.739367,25.0902 c 0,1.168118 -0.247266,2.078312 -0.741798,2.730582 -0.494531,0.648007 -1.172381,0.97201 -2.033548,0.97201 -0.54569,0 -1.027432,-0.149212 -1.445226,-0.447636 -0.417794,-0.298425 -0.739666,-0.726877 -0.965615,-1.285356 -0.22595,-0.562743 -0.338925,-1.219276 -0.338925,-1.9696 0,-1.155328 0.245134,-2.056996 0.735402,-2.705003 0.490269,-0.65227 1.17025,-0.978405 2.039943,-0.978405 0.839851,0 1.507043,0.33253 2.001574,0.99759 0.498795,0.660796 0.748193,1.556069 0.748193,2.685818 z m -3.785725,0 c 0,0.741797 0.081,1.302409 0.243003,1.681834 0.162001,0.379425 0.422057,0.569137 0.780166,0.569137 0.682113,0 1.023169,-0.750324 1.023169,-2.250971 0,-0.746061 -0.08313,-1.302409 -0.249398,-1.669044 -0.162001,-0.370899 -0.419925,-0.556348 -0.773771,-0.556348 -0.358109,0 -0.618165,0.185449 -0.780166,0.556348 -0.162002,0.366635 -0.243003,0.922983 -0.243003,1.669044 z"
         style="font-style:normal;font-variant:normal;font-weight:bold;font-stretch:condensed;font-size:13.0966px;line-height:1.101;font-family:'Open Sans Condensed';-inkscape-font-specification:'Open Sans Condensed, Bold Condensed';fill:#007ebb;fill-opacity:1;stroke-width:0.760345"
         id="path896"
         sodipodi:nodetypes="scsscscscssssscscs" />
      <path
         d="m 35.484312,28.664896 v -4.246151 c 0,-0.515847 -0.06182,-0.90593 -0.185449,-1.170249 -0.123633,-0.264319 -0.324004,-0.396478 -0.601112,-0.396478 -0.366635,0 -0.635217,0.183318 -0.805745,0.549953 -0.170529,0.362373 -0.255793,0.976274 -0.255793,1.841704 v 3.421221 h -1.701018 v -7.123813 h 1.349304 l 0.204634,0.914457 h 0.108712 c 0.153475,-0.328267 0.37303,-0.584059 0.658664,-0.767377 0.285635,-0.187581 0.620296,-0.281371 1.003985,-0.281371 0.648007,0 1.13188,0.221687 1.451621,0.66506 0.324003,0.443373 0.486005,1.09138 0.486005,1.944021 v 4.649023 z"
         style="font-style:normal;font-variant:normal;font-weight:bold;font-stretch:condensed;font-size:13.0966px;line-height:1.101;font-family:'Open Sans Condensed';-inkscape-font-specification:'Open Sans Condensed, Bold Condensed';font-variant-ligatures:normal;font-variant-caps:normal;font-variant-numeric:normal;font-feature-settings:normal;text-align:start;letter-spacing:0px;word-spacing:0px;writing-mode:lr-tb;text-anchor:start;fill:#007ebb;fill-opacity:1;stroke:none;stroke-width:0.760345"
         id="path898"
         sodipodi:nodetypes="cssscscccccccscscc" />
    </g>
  </g>
  <style
     id="style1002"
     type="text/css">
	.st0{clip-path:url(#SVGID_2_);fill:#4967A9;}
</style>
  <g
     fill="none"
     fill-rule="evenodd"
     id="g2"
     transform="matrix(0.40238715,0,0,0.40238715,5.1593745,5.093229)"
     inkscape:label="logo"
     style="display:inline">
    <path
       d="m 8,72 h 56 c 4.418278,0 8,-3.581722 8,-8 V 8 C 72,3.581722 68.418278,0 64,0 H 8 C 3.581722,0 0,3.581722 0,8 v 56 c 0,4.418278 3.581722,8 8,8 z"
       fill="#007ebb"
       id="path1" />
    <path
       d="M 62,62 H 51.315625 V 43.802115 c 0,-4.989361 -1.895833,-7.777583 -5.844922,-7.777583 -4.296094,0 -6.540625,2.901578 -6.540625,7.777583 V 62 H 28.633333 V 27.333333 h 10.296745 v 4.669595 c 0,0 3.095964,-5.728713 10.452474,-5.728713 C 56.735677,26.274215 62,30.764471 62,40.051212 Z M 16.349349,22.794013 C 12.842057,22.794013 10,19.929657 10,16.397007 10,12.864357 12.842057,10 16.349349,10 c 3.507292,0 6.347656,2.864357 6.347656,6.397007 0,3.53265 -2.840364,6.397006 -6.347656,6.397006 z M 11.032552,62 H 21.769401 V 27.333333 H 11.032552 Z"
       fill="#ffffff"
       id="path2" />
  </g>
  <g
     style="font-style:normal;font-variant:normal;font-weight:600;font-stretch:normal;font-size:8.26995px;line-height:1.25;font-family:'URW Gothic L';-inkscape-font-specification:'URW Gothic L Semi-Bold';font-variant-ligatures:normal;font-variant-caps:normal;font-variant-numeric:normal;font-feature-settings:normal;text-align:start;letter-spacing:0px;word-spacing:0px;writing-mode:lr-tb;text-anchor:start;fill:#ffffff;fill-opacity:1;stroke:none;stroke-width:0.516872"
     id="g2866"
     transform="translate(23.256495,4.8637499)"
     inkscape:label="not">
    <path
       d="M -4.3125159,9.5189543 V 6.8376818 q 0,-0.4886054 -0.1171037,-0.7389652 -0.1171038,-0.2503598 -0.3795778,-0.2503598 -0.3472732,0 -0.5087957,0.3472733 -0.1615224,0.3432351 -0.1615224,1.1629615 v 2.1603627 h -1.0741242 v -4.4984 h 0.8520308 l 0.129218,0.5774427 h 0.068647 Q -5.3583737,5.2870663 -5.0878236,5.1134297 -4.8172735,4.935755 -4.453848,4.935755 q 0.6137853,0 0.9166398,0.4199584 0.3068927,0.4199583 0.3068927,1.2275705 v 2.9356704 z"
       style="font-style:normal;font-variant:normal;font-weight:bold;font-stretch:normal;font-family:'Open Sans Condensed';-inkscape-font-specification:'Open Sans Condensed, Bold';fill:#ffffff;stroke-width:0.516872"
       id="path2336"
       inkscape:connector-curvature="0" />
    <path
       d="m 0.97734414,7.2616782 q 0,1.1064287 -0.46841508,1.724252 -0.46841508,0.6137853 -1.2841034,0.6137853 -0.51687186,0 -0.91260176,-0.2826643 -0.39573,-0.2826642 -0.6097472,-0.8116502 -0.2140173,-0.5330241 -0.2140173,-1.2437228 0,-1.0943146 0.464377,-1.7080998 0.4643771,-0.6178234 1.2881415,-0.6178234 0.79549802,0 1.2639131,0.6299375 0.47245314,0.6258995 0.47245314,1.6959857 z m -2.39053214,0 q 0,0.7026226 0.1534463,1.06201 0.1534464,0.3593874 0.49264348,0.3593874 0.64608976,0 0.64608976,-1.4213974 0,-0.7066607 -0.15748438,-1.053934 -0.15344632,-0.3513113 -0.48860538,-0.3513113 -0.33919708,0 -0.49264348,0.3513113 -0.1534463,0.3472733 -0.1534463,1.053934 z"
       style="font-style:normal;font-variant:normal;font-weight:bold;font-stretch:normal;font-family:'Open Sans Condensed';-inkscape-font-specification:'Open Sans Condensed, Bold';fill:#ffffff;stroke-width:0.516872"
       id="path2338"
       inkscape:connector-curvature="0" />
    <path
       d="m 3.2951912,8.6911518 q 0.2261314,0 0.4886054,-0.1130657 v 0.8399167 q -0.262474,0.1817127 -0.7874219,0.1817127 -0.5855188,0 -0.8681831,-0.3472732 Q 1.8455273,8.9011309 1.8455273,8.2025464 V 5.8725852 H 1.4094167 V 5.3920559 L 1.9707072,5.0044021 2.2452954,4.0514197 H 2.9317657 V 5.0205543 H 3.7474541 V 5.8725852 H 2.9317657 v 2.3663037 q 0,0.4522629 0.3634255,0.4522629 z"
       style="font-style:normal;font-variant:normal;font-weight:bold;font-stretch:normal;font-family:'Open Sans Condensed';-inkscape-font-specification:'Open Sans Condensed, Bold';fill:#ffffff;stroke-width:0.516872"
       id="path2340"
       inkscape:connector-curvature="0" />
  </g>
</svg>
